<?xml version="1.0" encoding="UTF-8"?><svg id="Layer_2" xmlns="http://www.w3.org/2000/svg" viewBox="0 0 835.0828 200"><g id="Components"><g id="_22098a3d-2bc3-4db8-9ef2-0623e782ae7f_1"><g><path d="m68.6808,4.9315c-6.6027,2.1575-12.9027,4.985-18.8205,8.4014h99.8411c-5.9178-3.4165-12.2178-6.2439-18.8205-8.4014C121.0917,1.7301,110.6383,0,99.7808,0c-10.8575,0-21.311,1.7301-31.1,4.9315Z" style="fill:#e86b35;"/><path d="m26.8342,31.5987h22.6274s8.4014,8.4014,8.4014,8.4014h121.9247c-2.2-2.9302-4.5575-5.7343-7.0603-8.4014-1.5945-1.7014-3.2493-3.3466-4.9589-4.9315H44.5301s-12.737,0-12.737,0c-1.7096,1.5849-3.3644,3.2301-4.9589,4.9315Z" style="fill:#e86b35;"/><path d="m27.5586,58.2644h21.9021s11.8681,8.4027,11.8681,8.4027h132.7616c-1.011-2.8631-2.1493-5.6658-3.4096-8.4028-.7671-1.6685-1.5795-3.3137-2.4343-4.9315h-117.0507s-23.1959,0-23.1959,0H11.315c-.8548,1.6178-1.6671,3.263-2.4342,4.9315h18.6778Z" style="fill:#e86b35;"/><path d="m26.2877,84.9315h23.173s11.8681,8.4013,11.8681,8.4013h138.2328c-.1863-2.8343-.4904-5.637-.9082-8.4014-.2507-1.6575-.5425-3.3014-.8726-4.9315h-99.9178s-23.1959,0-23.1959,0H21.3589s-19.5781,0-19.5781,0c-.3301,1.6301-.6219,3.274-.8726,4.9315h25.3795Z" style="fill:#e86b35;"/><path d="m49.4607,111.5986h0s11.8681,8.4014,11.8681,8.4014h136.452c.5603-2.7603,1.0069-5.563,1.3343-8.4014.189-1.6315.3384-3.2767.4466-4.9315h-88.3657s-9.8616,0-9.8616,0h-53.3205s-48.0137,0-48.0137,0c.1082,1.6548.2575,3.3.4466,4.9315h49.0141Z" style="fill:#e86b35;"/><path d="m26.2754,138.2644h23.1854s11.8681,8.4027,11.8681,8.4027h80.0055s46.9123,0,46.9123,0c1.4425-2.7288,2.763-5.5315,3.952-8.4027.6726-1.6233,1.3041-3.2671,1.8918-4.9315h-66.0904s-43.4699,0-43.4699,0h-9.8616s-53.3219,0-53.3219,0H5.4712c.5877,1.6644,1.2192,3.3082,1.8918,4.9315h18.9123Z" style="fill:#e86b35;"/><path d="m49.4607,164.9315l11.8681,8.4014h53.3219s53.1178,0,53.1178,0c.0411-.037.0808-.074.1205-.111,2.8041-2.6096,5.4575-5.3781,7.9466-8.2904,1.3671-1.6,2.6863-3.2452,3.9521-4.9315h-25.1206s-53.3438,0-53.3438,0h-43.4603s-9.8616,0-9.8616,0h-28.2274c1.2658,1.6863,2.5849,3.3315,3.9521,4.9315h25.7347Z" style="fill:#e86b35;"/><path d="m87.2014,199.2151c4.1206.5178,8.3192.7849,12.5795.7849,12.3767,0,24.2274-2.2493,35.1685-6.3603,1.6931-.6356,3.3658-1.3165,5.0137-2.0411,3.3466-1.4699,6.5959-3.1178,9.7383-4.9315h-21.7219s-53.3219,0-53.3219,0h-24.7973c3.1425,1.8137,6.3918,3.4617,9.7384,4.9315,8.6301,3.7918,17.9,6.4,27.6027,7.6164Z" style="fill:#e86b35;"/></g><g><path d="m284.739,114.3341c.7048,9.6347,8.2243,16.0962,19.7383,16.0962,9.7519,0,16.801-4.347,16.801-12.2188,0-8.6947-8.5767-10.574-21.6184-12.9244-13.6285-2.3497-26.5529-6.6967-26.5529-23.028,0-14.3341,11.7492-24.086,29.2558-24.086,18.7983,0,30.5475,10.2223,31.1351,25.3784h-13.512c-1.0573-8.3422-7.6367-13.9817-17.6231-13.9817-9.2823,0-15.7445,3.9946-15.7445,11.7492,0,8.4595,8.4595,10.2216,21.3839,12.454,13.6285,2.4676,26.9053,6.8146,26.7881,23.0287,0,14.8037-12.3368,25.0253-30.4302,25.0253-20.4439,0-32.7807-11.2788-33.2503-27.7281l13.6292.2352Z"/><path d="m343.134,111.1616c0-18.5631,11.8671-30.8999,29.6082-30.8999,17.3886,0,29.0206,11.0444,29.373,28.6682,0,1.5269-.118,3.1718-.3524,4.8166h-45.3519v.8228c.3524,10.2216,6.8146,16.919,16.801,16.919,7.7546,0,13.3941-3.8773,15.1569-10.5747h12.6885c-2.1145,11.8664-12.2188,20.9135-27.1405,20.9135-18.9155,0-30.7827-12.2188-30.7827-30.6654Zm45.8216-6.6967c-1.0573-8.9291-7.2843-13.9817-16.0962-13.9817-8.1071,0-15.0389,5.4049-15.9789,13.9817h32.0751Z"/><path d="m410.1058,111.1616c0-18.5631,11.9844-30.8999,30.1958-30.8999,15.5086,0,25.1425,8.5767,27.6102,22.206h-13.2768c-1.6449-7.0498-6.6967-11.3968-14.5685-11.3968-10.2216,0-16.919,8.2243-16.919,20.0907,0,11.7492,6.6974,19.8563,16.919,19.8563,7.7546,0,12.9237-4.4649,14.4513-11.3968h13.3941c-2.3497,13.6292-12.5713,22.206-27.9626,22.206-18.2114,0-29.8434-11.8664-29.8434-30.6654Z"/><path d="m482.012,92.1281h-10.4568v-11.1616h10.4568v-16.801h12.8072v16.801h14.6858v11.1616h-14.6858v31.3703c0,4.6994,1.6449,6.4622,6.4615,6.4622h8.9299v11.1616h-11.7492c-11.5147,0-16.4493-5.4049-16.4493-16.3314v-32.6627Z"/><path d="m514.7934,111.0444c0-18.3286,12.3368-30.7827,30.6654-30.7827s30.6654,12.454,30.6654,30.7827c0,18.4459-12.3368,30.7827-30.6654,30.7827s-30.6654-12.3368-30.6654-30.7827Zm48.4065,0c0-11.632-7.0491-19.9735-17.741-19.9735s-17.6238,8.3415-17.6238,19.9735,6.9319,19.9735,17.6238,19.9735,17.741-8.3415,17.741-19.9735Z"/><path d="m619.5983,80.9665v11.8664h-5.6394c-11.2795,0-14.9217,8.8119-14.9217,18.0942v30.1951h-12.6892v-60.1557h11.2795l1.4097,9.0471c3.0545-5.0525,7.8719-9.0471,17.741-9.0471h2.8201Z"/><path d="m666.5959,58.8778c8.6163,0,16.0185,1.6844,22.206,5.0525,6.1882,3.3681,10.9271,8.1459,14.2168,14.3341,3.2897,6.1875,4.9346,13.4329,4.9346,21.7356s-1.6449,15.5481-4.9346,21.7363c-3.2897,6.1875-8.0287,10.966-14.2168,14.3341-6.1875,3.3681-13.5897,5.0518-22.206,5.0518h-22.088V58.8778h22.088Zm25.7309,66.912c6.1098-6.3054,9.1643-14.9023,9.1643-25.7898,0-10.966-3.0351-19.5815-9.1053-25.8481-6.0702-6.2659-14.6671-9.3995-25.7898-9.3995h-15.7438v70.4952h15.7438c11.0444,0,19.6211-3.1523,25.7309-9.4578Z"/><path d="m721.937,58.8778h6.3443v76.3698h39.3601v5.8746h-45.7043V58.8778Z"/><path d="m822.9222,61.8741c3.8773,1.9973,6.8736,4.7979,8.9881,8.4005,2.1152,3.6033,3.1725,7.7935,3.1725,12.572,0,4.6994-1.0573,8.8702-3.1725,12.513-2.1145,3.6421-5.1302,6.4615-9.0464,8.4588-3.9169,1.998-8.4206,2.9963-13.512,2.9963h-24.2032v34.3076h-6.3443V58.8778h30.5475c5.1698,0,9.6929.999,13.5703,2.9963Zm-14.1572,39.0659c6.0307,0,10.848-1.6643,14.4513-4.9936,3.6026-3.3286,5.4042-7.6957,5.4042-13.0999s-1.7815-9.7713-5.346-13.1006c-3.5637-3.3286-8.3609-4.9936-14.3923-4.9936h-23.7336v36.1876h23.6163Z"/></g></g></g></svg>