<?xml version="1.0" encoding="UTF-8"?><svg id="Layer_2" xmlns="http://www.w3.org/2000/svg" viewBox="0 0 199.5616 200"><g id="Components"><g id="_39bff11b-11d6-4b92-a981-2689651fcd34_1"><path d="m68.6808,4.9315c-6.6027,2.1575-12.9027,4.985-18.8205,8.4014h99.8411c-5.9178-3.4165-12.2178-6.2439-18.8205-8.4014C121.0917,1.7301,110.6383,0,99.7808,0c-10.8575,0-21.311,1.7301-31.1,4.9315Z" style="fill:#e86b35;"/><path d="m26.8342,31.5987h22.6274s8.4014,8.4014,8.4014,8.4014h121.9247c-2.2-2.9302-4.5575-5.7343-7.0603-8.4014-1.5945-1.7014-3.2493-3.3466-4.9589-4.9315H44.5301s-12.737,0-12.737,0c-1.7096,1.5849-3.3644,3.2301-4.9589,4.9315Z" style="fill:#e86b35;"/><path d="m27.5586,58.2644h21.9021s11.8681,8.4027,11.8681,8.4027h132.7616c-1.011-2.8631-2.1493-5.6658-3.4096-8.4028-.7671-1.6685-1.5795-3.3137-2.4343-4.9315h-117.0507s-23.1959,0-23.1959,0H11.315c-.8548,1.6178-1.6671,3.263-2.4342,4.9315h18.6778Z" style="fill:#e86b35;"/><path d="m26.2877,84.9315h23.173s11.8681,8.4013,11.8681,8.4013h138.2328c-.1863-2.8343-.4904-5.637-.9082-8.4014-.2507-1.6575-.5425-3.3014-.8726-4.9315h-99.9178s-23.1959,0-23.1959,0H21.3589s-19.5781,0-19.5781,0c-.3301,1.6301-.6219,3.274-.8726,4.9315h25.3795Z" style="fill:#e86b35;"/><path d="m49.4607,111.5986h0s11.8681,8.4014,11.8681,8.4014h136.452c.5603-2.7603,1.0069-5.563,1.3343-8.4014.189-1.6315.3384-3.2767.4466-4.9315h-88.3657s-9.8616,0-9.8616,0h-53.3205s-48.0137,0-48.0137,0c.1082,1.6548.2575,3.3.4466,4.9315h49.0141Z" style="fill:#e86b35;"/><path d="m26.2754,138.2644h23.1854s11.8681,8.4027,11.8681,8.4027h80.0055s46.9123,0,46.9123,0c1.4425-2.7288,2.763-5.5315,3.952-8.4027.6726-1.6233,1.3041-3.2671,1.8918-4.9315h-66.0904s-43.4699,0-43.4699,0h-9.8616s-53.3219,0-53.3219,0H5.4712c.5877,1.6644,1.2192,3.3082,1.8918,4.9315h18.9123Z" style="fill:#e86b35;"/><path d="m49.4607,164.9315l11.8681,8.4014h53.3219s53.1178,0,53.1178,0c.0411-.037.0808-.074.1205-.111,2.8041-2.6096,5.4575-5.3781,7.9466-8.2904,1.3671-1.6,2.6863-3.2452,3.9521-4.9315h-25.1206s-53.3438,0-53.3438,0h-43.4603s-9.8616,0-9.8616,0h-28.2274c1.2658,1.6863,2.5849,3.3315,3.9521,4.9315h25.7347Z" style="fill:#e86b35;"/><path d="m87.2014,199.2151c4.1206.5178,8.3192.7849,12.5795.7849,12.3767,0,24.2274-2.2493,35.1685-6.3603,1.6931-.6356,3.3658-1.3165,5.0137-2.0411,3.3466-1.4699,6.5959-3.1178,9.7383-4.9315h-21.7219s-53.3219,0-53.3219,0h-24.7973c3.1425,1.8137,6.3918,3.4617,9.7384,4.9315,8.6301,3.7918,17.9,6.4,27.6027,7.6164Z" style="fill:#e86b35;"/></g></g></svg>