<svg width="14" height="14" viewBox="0 0 14 14" fill="none" xmlns="http://www.w3.org/2000/svg">
<g clip-path="url(#clip0_37_177)">
<path d="M6.83118 7.90022C7.18025 7.90022 7.51501 7.76156 7.76184 7.51473C8.00866 7.26791 8.14732 6.93315 8.14732 6.58408C8.14732 6.23502 8.00866 5.90026 7.76184 5.65343C7.51501 5.40661 7.18025 5.26794 6.83118 5.26794C6.48212 5.26794 6.14736 5.40661 5.90053 5.65343C5.65371 5.90026 5.51505 6.23502 5.51505 6.58408C5.51505 6.93315 5.65371 7.26791 5.90053 7.51473C6.14736 7.76156 6.48212 7.90022 6.83118 7.90022Z" fill="#C9C9C9"/>
<path fill-rule="evenodd" clip-rule="evenodd" d="M0.55188 6.58415C1.39026 3.91436 3.88435 1.97766 6.83118 1.97766C9.77802 1.97766 12.2721 3.91436 13.1105 6.58415C12.2721 9.25394 9.77802 11.1906 6.83118 11.1906C3.88435 11.1906 1.39026 9.25394 0.55188 6.58415ZM9.46346 6.58415C9.46346 7.28227 9.18613 7.9518 8.69248 8.44545C8.19884 8.9391 7.52931 9.21643 6.83118 9.21643C6.13306 9.21643 5.46353 8.9391 4.96988 8.44545C4.47623 7.9518 4.1989 7.28227 4.1989 6.58415C4.1989 5.88603 4.47623 5.2165 4.96988 4.72285C5.46353 4.2292 6.13306 3.95187 6.83118 3.95187C7.52931 3.95187 8.19884 4.2292 8.69248 4.72285C9.18613 5.2165 9.46346 5.88603 9.46346 6.58415V6.58415Z" fill="#C9C9C9"/>
</g>
<defs>
<clipPath id="clip0_37_177">
<rect width="13.1614" height="13.1614" fill="white" transform="translate(0.250488 0.00341797)"/>
</clipPath>
</defs>
</svg>
