<svg width="14" height="11" viewBox="0 0 14 11" fill="none" xmlns="http://www.w3.org/2000/svg">
<path fill-rule="evenodd" clip-rule="evenodd" d="M0.55188 5.58415C1.39026 2.91436 3.88435 0.977661 6.83118 0.977661C9.77802 0.977661 12.2721 2.91436 13.1105 5.58415C12.2721 8.25394 9.77802 10.1906 6.83118 10.1906C3.88435 10.1906 1.39026 8.25394 0.55188 5.58415ZM9.46346 5.58415C9.46346 6.28227 9.18613 6.9518 8.69248 7.44545C8.19884 7.9391 7.52931 8.21643 6.83118 8.21643C6.13306 8.21643 5.46353 7.9391 4.96988 7.44545C4.47623 6.9518 4.1989 6.28227 4.1989 5.58415C4.1989 4.88603 4.47623 4.2165 4.96988 3.72285C5.46353 3.2292 6.13306 2.95187 6.83118 2.95187C7.52931 2.95187 8.19884 3.2292 8.69248 3.72285C9.18613 4.2165 9.46346 4.88603 9.46346 5.58415Z" fill="#C9C9C9"/>
</svg>
