<svg width="20" height="20" viewBox="0 0 20 20" fill="none" xmlns="http://www.w3.org/2000/svg">
<path d="M14.1667 16.6667H18.3334V15C18.3333 14.4805 18.1714 13.9738 17.8701 13.5505C17.5689 13.1272 17.1432 12.8083 16.6523 12.6381C16.1614 12.4679 15.6297 12.4549 15.1311 12.6009C14.6324 12.7468 14.1917 13.0445 13.87 13.4525M14.1667 16.6667H5.83335M14.1667 16.6667V15C14.1667 14.4533 14.0617 13.9308 13.87 13.4525M13.87 13.4525C13.5606 12.6791 13.0265 12.0162 12.3367 11.5493C11.6469 11.0823 10.833 10.8328 10 10.8328C9.16704 10.8328 8.35315 11.0823 7.66336 11.5493C6.97356 12.0162 6.43948 12.6791 6.13002 13.4525M5.83335 16.6667H1.66669V15C1.66673 14.4805 1.82863 13.9738 2.1299 13.5505C2.43118 13.1272 2.85684 12.8083 3.34773 12.6381C3.83862 12.4679 4.37033 12.4549 4.86897 12.6009C5.3676 12.7468 5.80838 13.0445 6.13002 13.4525M5.83335 16.6667V15C5.83335 14.4533 5.93835 13.9308 6.13002 13.4525M12.5 5.83334C12.5 6.49638 12.2366 7.13227 11.7678 7.60111C11.2989 8.06995 10.6631 8.33334 10 8.33334C9.33698 8.33334 8.70109 8.06995 8.23225 7.60111C7.76341 7.13227 7.50002 6.49638 7.50002 5.83334C7.50002 5.1703 7.76341 4.53442 8.23225 4.06558C8.70109 3.59674 9.33698 3.33334 10 3.33334C10.6631 3.33334 11.2989 3.59674 11.7678 4.06558C12.2366 4.53442 12.5 5.1703 12.5 5.83334ZM17.5 8.33334C17.5 8.77537 17.3244 9.19929 17.0119 9.51185C16.6993 9.82441 16.2754 10 15.8334 10C15.3913 10 14.9674 9.82441 14.6548 9.51185C14.3423 9.19929 14.1667 8.77537 14.1667 8.33334C14.1667 7.89132 14.3423 7.46739 14.6548 7.15483C14.9674 6.84227 15.3913 6.66668 15.8334 6.66668C16.2754 6.66668 16.6993 6.84227 17.0119 7.15483C17.3244 7.46739 17.5 7.89132 17.5 8.33334ZM5.83335 8.33334C5.83335 8.77537 5.65776 9.19929 5.3452 9.51185C5.03264 9.82441 4.60871 10 4.16669 10C3.72466 10 3.30074 9.82441 2.98818 9.51185C2.67562 9.19929 2.50002 8.77537 2.50002 8.33334C2.50002 7.89132 2.67562 7.46739 2.98818 7.15483C3.30074 6.84227 3.72466 6.66668 4.16669 6.66668C4.60871 6.66668 5.03264 6.84227 5.3452 7.15483C5.65776 7.46739 5.83335 7.89132 5.83335 8.33334Z" stroke="#18181B" stroke-width="0.5" stroke-linecap="round" stroke-linejoin="round"/>
</svg>
