<svg width="20" height="20" viewBox="0 0 20 20" fill="none" xmlns="http://www.w3.org/2000/svg">
<path d="M14.1666 16.6667H18.3333V15C18.3333 14.4805 18.1713 13.9738 17.8701 13.5506C17.5688 13.1273 17.1431 12.8084 16.6523 12.6382C16.1614 12.468 15.6296 12.4549 15.131 12.6009C14.6324 12.7468 14.1916 13.0445 13.87 13.4525M14.1666 16.6667H5.83329M14.1666 16.6667V15C14.1666 14.4534 14.0616 13.9309 13.87 13.4525M13.87 13.4525C13.5605 12.6792 13.0264 12.0163 12.3366 11.5493C11.6468 11.0824 10.8329 10.8328 9.99996 10.8328C9.16697 10.8328 8.35309 11.0824 7.6633 11.5493C6.9735 12.0163 6.43942 12.6792 6.12996 13.4525M5.83329 16.6667H1.66663V15C1.66666 14.4805 1.82857 13.9738 2.12984 13.5506C2.43112 13.1273 2.85678 12.8084 3.34767 12.6382C3.83856 12.468 4.37027 12.4549 4.86891 12.6009C5.36754 12.7468 5.80832 13.0445 6.12996 13.4525M5.83329 16.6667V15C5.83329 14.4534 5.93829 13.9309 6.12996 13.4525M12.5 5.83337C12.5 6.49641 12.2366 7.1323 11.7677 7.60114C11.2989 8.06998 10.663 8.33337 9.99996 8.33337C9.33692 8.33337 8.70103 8.06998 8.23219 7.60114C7.76335 7.1323 7.49996 6.49641 7.49996 5.83337C7.49996 5.17033 7.76335 4.53445 8.23219 4.06561C8.70103 3.59677 9.33692 3.33337 9.99996 3.33337C10.663 3.33337 11.2989 3.59677 11.7677 4.06561C12.2366 4.53445 12.5 5.17033 12.5 5.83337ZM17.5 8.33337C17.5 8.7754 17.3244 9.19932 17.0118 9.51188C16.6992 9.82445 16.2753 10 15.8333 10C15.3913 10 14.9673 9.82445 14.6548 9.51188C14.3422 9.19932 14.1666 8.7754 14.1666 8.33337C14.1666 7.89135 14.3422 7.46742 14.6548 7.15486C14.9673 6.8423 15.3913 6.66671 15.8333 6.66671C16.2753 6.66671 16.6992 6.8423 17.0118 7.15486C17.3244 7.46742 17.5 7.89135 17.5 8.33337ZM5.83329 8.33337C5.83329 8.7754 5.6577 9.19932 5.34514 9.51188C5.03258 9.82445 4.60865 10 4.16663 10C3.7246 10 3.30068 9.82445 2.98811 9.51188C2.67555 9.19932 2.49996 8.7754 2.49996 8.33337C2.49996 7.89135 2.67555 7.46742 2.98811 7.15486C3.30068 6.8423 3.7246 6.66671 4.16663 6.66671C4.60865 6.66671 5.03258 6.8423 5.34514 7.15486C5.6577 7.46742 5.83329 7.89135 5.83329 8.33337Z" stroke="#18181B" stroke-width="0.5" stroke-linecap="round" stroke-linejoin="round"/>
</svg>
